<?xml version="1.0" encoding="UTF-8"?>
<svg id="Layer_1" data-name="Layer 1" xmlns="http://www.w3.org/2000/svg" viewBox="0 0 418.5 100.27">
  <defs>
    <style>
      .cls-1 {
        fill: none;
        stroke: #000;
        stroke-linecap: round;
        stroke-linejoin: round;
        stroke-width: 4.2px;
      }

      .cls-2 {
        fill: #000;
      }

      .cls-2, .cls-3 {
        stroke-width: 0px;
      }

      .cls-3 {
        fill: #fff;
      }
    </style>
  </defs>
  <g>
    <path class="cls-1" d="M20.1,58.19c-2.1,4.2-9.6,6.28-9.6,12.81s21,3.03,21,9.57-23.1,9.33-23.1,9.33"/>
    <path class="cls-2" d="M21,35.93c-1.99,0-3.9-.77-5.3-2.15-1.41-1.38-2.2-3.25-2.2-5.2s.79-3.82,2.2-5.2c1.41-1.38,3.31-2.15,5.3-2.15s3.9.77,5.3,2.15c1.41,1.38,2.2,3.25,2.2,5.2,0,.97-.19,1.92-.57,2.81-.38.89-.93,1.7-1.63,2.38-.7.68-1.52,1.22-2.43,1.59-.91.37-1.89.56-2.87.56ZM21,8c-5.57,0-10.91,2.17-14.85,6.03C2.21,17.89,0,23.12,0,28.58c0,15.43,21,31.92,21,31.92,0,0,21-16.49,21-31.92,0-5.46-2.21-10.69-6.15-14.55-3.94-3.86-9.28-6.03-14.85-6.03Z"/>
  </g>
  <g>
    <rect class="cls-2" x="69.89" width="348.61" height="100.27"/>
    <g>
      <path class="cls-3" d="M136.28,80.72l-3.82-11.12h-23.09l-3.82,11.12h-12.65l20.97-59.42h14.18l20.88,59.42h-12.65ZM112.51,60.43h16.89l-8.49-24.7-8.4,24.7Z"/>
      <path class="cls-3" d="M170.49,21.73c0,2.04-.71,3.76-2.12,5.18s-3.13,2.12-5.14,2.12-3.72-.71-5.14-2.12c-1.42-1.41-2.12-3.14-2.12-5.18s.71-3.76,2.12-5.18c1.41-1.41,3.13-2.12,5.14-2.12s3.72.71,5.14,2.12c1.41,1.42,2.12,3.14,2.12,5.18ZM157.24,80.72v-47.02h11.97v47.02h-11.97Z"/>
      <path class="cls-3" d="M193.91,33.7v8.32c3.17-6,7.75-9,13.75-9v12.22h-2.97c-3.57,0-6.25.89-8.06,2.67-1.81,1.78-2.72,4.85-2.72,9.21v23.6h-11.97v-47.02h11.97Z"/>
      <path class="cls-3" d="M254.86,51.01c-1.53,1.87-3.75,3.35-6.66,4.46-2.92,1.1-6.32,1.66-10.23,1.66h-9.85v23.6h-11.97V21.47h21.81c6.85,0,12.12,1.71,15.83,5.14,3.71,3.42,5.56,7.46,5.56,12.1s-1.5,8.74-4.5,12.31ZM228.12,47.96h9.85c3,0,5.29-.78,6.88-2.33,1.58-1.56,2.38-3.66,2.38-6.32s-.79-4.77-2.38-6.32c-1.58-1.56-3.88-2.33-6.88-2.33h-9.85v17.32Z"/>
      <path class="cls-3" d="M280.32,33.7v7.05c3-5.15,7.87-7.72,14.6-7.72,5.38,0,9.76,1.77,13.16,5.3,3.4,3.54,5.09,8.45,5.09,14.73v27.67h-11.88v-25.97c0-3.68-.93-6.49-2.8-8.45-1.87-1.95-4.41-2.93-7.64-2.93s-5.79.98-7.68,2.93c-1.9,1.95-2.84,4.77-2.84,8.45v25.97h-11.97v-47.02h11.97Z"/>
      <path class="cls-3" d="M313.11,30.64v-9.17h43.88v9.17h-16.04v50.08h-11.88V30.64h-15.96Z"/>
      <path class="cls-3" d="M356.87,47.45c0-4.07,1.73-7.5,5.18-10.27,3.45-2.77,8.03-4.16,13.75-4.16s10.3,1.37,13.75,4.12c3.45,2.75,5.29,6.47,5.52,11.16h-12.22c-.34-3.96-2.77-5.94-7.3-5.94-2.26,0-4.02.45-5.26,1.36-1.25.91-1.87,2.15-1.87,3.73s.93,2.83,2.8,3.73c1.87.91,4.13,1.61,6.79,2.12,2.66.51,5.3,1.15,7.94,1.91,2.63.76,4.88,2.12,6.75,4.07s2.8,4.54,2.8,7.77c0,4.24-1.8,7.7-5.39,10.36-3.59,2.66-8.18,3.99-13.75,3.99s-10.14-1.32-13.71-3.95c-3.56-2.63-5.52-6.41-5.86-11.33h12.22c.45,3.96,2.97,5.94,7.55,5.94,2.21,0,3.99-.49,5.35-1.49,1.36-.99,2.04-2.29,2.04-3.9s-.93-2.89-2.8-3.82-4.13-1.66-6.79-2.16c-2.66-.51-5.3-1.13-7.94-1.87-2.63-.73-4.88-2.05-6.75-3.95-1.87-1.9-2.8-4.37-2.8-7.43Z"/>
    </g>
  </g>
</svg>