<?xml version="1.0" encoding="UTF-8"?>
<svg id="Layer_1" data-name="Layer 1" xmlns="http://www.w3.org/2000/svg" viewBox="0 0 521.52 150">
  <defs>
    <style>
      .cls-1 {
        fill: #000;
      }

      .cls-1, .cls-2 {
        stroke-width: 0px;
      }

      .cls-2 {
        fill: #fff;
      }
    </style>
  </defs>
  <rect class="cls-1" width="521.52" height="150"/>
  <g>
    <path class="cls-2" d="M99.32,120.76l-5.71-16.63h-34.54l-5.71,16.63h-18.92l31.36-88.89h21.21l31.24,88.89h-18.92ZM63.76,90.41h25.27l-12.7-36.95-12.57,36.95Z"/>
    <path class="cls-2" d="M150.49,32.5c0,3.05-1.06,5.63-3.17,7.75s-4.68,3.17-7.68,3.17-5.57-1.06-7.68-3.17c-2.12-2.11-3.17-4.7-3.17-7.75s1.06-5.63,3.17-7.75c2.11-2.12,4.68-3.17,7.68-3.17s5.57,1.06,7.68,3.17c2.11,2.12,3.17,4.7,3.17,7.75ZM130.68,120.76V50.41h17.9v70.35h-17.9Z"/>
    <path class="cls-2" d="M185.54,50.41v12.44c4.74-8.97,11.6-13.46,20.57-13.46v18.29h-4.44c-5.33,0-9.36,1.33-12.06,4-2.71,2.67-4.06,7.26-4.06,13.78v35.3h-17.9V50.41h17.9Z"/>
    <path class="cls-2" d="M276.71,76.31c-2.29,2.79-5.61,5.02-9.97,6.67-4.36,1.65-9.46,2.48-15.3,2.48h-14.73v35.3h-17.9V32.12h32.63c10.24,0,18.14,2.56,23.68,7.68,5.54,5.12,8.32,11.15,8.32,18.09s-2.24,13.08-6.73,18.41ZM236.71,71.74h14.73c4.49,0,7.91-1.16,10.29-3.49,2.37-2.33,3.56-5.48,3.56-9.46s-1.19-7.13-3.56-9.46c-2.37-2.33-5.8-3.49-10.29-3.49h-14.73v25.9Z"/>
    <path class="cls-2" d="M314.8,50.41v10.54c4.49-7.7,11.77-11.56,21.84-11.56,8.04,0,14.6,2.65,19.68,7.94,5.08,5.29,7.62,12.63,7.62,22.03v41.4h-17.78v-38.86c0-5.5-1.4-9.71-4.19-12.63-2.79-2.92-6.6-4.38-11.43-4.38s-8.66,1.46-11.49,4.38c-2.84,2.92-4.25,7.13-4.25,12.63v38.86h-17.9V50.41h17.9Z"/>
    <path class="cls-2" d="M363.86,45.84v-13.71h65.65v13.71h-24v74.92h-17.78V45.84h-23.87Z"/>
    <path class="cls-2" d="M429.31,70.98c0-6.1,2.58-11.22,7.75-15.36,5.16-4.15,12.02-6.22,20.57-6.22s15.41,2.05,20.57,6.16c5.16,4.11,7.91,9.67,8.25,16.7h-18.29c-.51-5.92-4.15-8.89-10.92-8.89-3.39,0-6.01.68-7.87,2.03-1.86,1.36-2.79,3.22-2.79,5.59s1.4,4.23,4.19,5.59c2.79,1.36,6.18,2.41,10.16,3.17,3.98.76,7.94,1.71,11.87,2.86,3.94,1.14,7.3,3.17,10.09,6.1s4.19,6.79,4.19,11.62c0,6.35-2.69,11.51-8.06,15.49-5.38,3.98-12.23,5.97-20.57,5.97s-15.17-1.97-20.51-5.9c-5.33-3.94-8.25-9.59-8.76-16.95h18.29c.68,5.93,4.44,8.89,11.3,8.89,3.3,0,5.97-.74,8-2.22,2.03-1.48,3.05-3.43,3.05-5.84s-1.4-4.32-4.19-5.71-6.18-2.48-10.16-3.24c-3.98-.76-7.94-1.69-11.87-2.79-3.94-1.1-7.3-3.07-10.1-5.9-2.79-2.83-4.19-6.54-4.19-11.11Z"/>
  </g>
</svg>